<mxfile host="65bd71144e" modified="2020-10-11T09:01:17.322Z" agent="5.0 (Macintosh; Intel Mac OS X 10_15_6) AppleWebKit/537.36 (KHTML, like Gecko) Code/1.47.3 Chrome/78.0.3904.130 Electron/7.3.2 Safari/537.36" etag="3CGxhQBNTJyBq-FbfcJa" version="13.6.5">
    <diagram id="_UF49B7PCfFeT8J70AKn" name="AWS">
        <mxGraphModel dx="598" dy="635" grid="1" gridSize="10" guides="1" tooltips="1" connect="1" arrows="1" fold="1" page="1" pageScale="1" pageWidth="827" pageHeight="1169" math="0" shadow="0">
            <root>
                <mxCell id="0"/>
                <mxCell id="1" parent="0"/>
                <mxCell id="LLyY363C2WJFp_gUzBj3-1" value="AWS Cloud" style="points=[[0,0],[0.25,0],[0.5,0],[0.75,0],[1,0],[1,0.25],[1,0.5],[1,0.75],[1,1],[0.75,1],[0.5,1],[0.25,1],[0,1],[0,0.75],[0,0.5],[0,0.25]];outlineConnect=0;gradientColor=none;html=1;whiteSpace=wrap;fontSize=12;fontStyle=0;shape=mxgraph.aws4.group;grIcon=mxgraph.aws4.group_aws_cloud_alt;strokeColor=#232F3E;fillColor=none;verticalAlign=top;align=left;spacingLeft=30;fontColor=#232F3E;dashed=0;" parent="1" vertex="1">
                    <mxGeometry x="20" y="30" width="756" height="510" as="geometry"/>
                </mxCell>
                <mxCell id="LLyY363C2WJFp_gUzBj3-2" value="VPC" style="points=[[0,0],[0.25,0],[0.5,0],[0.75,0],[1,0],[1,0.25],[1,0.5],[1,0.75],[1,1],[0.75,1],[0.5,1],[0.25,1],[0,1],[0,0.75],[0,0.5],[0,0.25]];outlineConnect=0;gradientColor=none;html=1;whiteSpace=wrap;fontSize=12;fontStyle=0;shape=mxgraph.aws4.group;grIcon=mxgraph.aws4.group_vpc;strokeColor=#248814;fillColor=none;verticalAlign=top;align=left;spacingLeft=30;fontColor=#AAB7B8;dashed=0;" parent="1" vertex="1">
                    <mxGeometry x="46" y="60" width="554" height="470" as="geometry"/>
                </mxCell>
                <mxCell id="LLyY363C2WJFp_gUzBj3-3" value="Public subnet" style="points=[[0,0],[0.25,0],[0.5,0],[0.75,0],[1,0],[1,0.25],[1,0.5],[1,0.75],[1,1],[0.75,1],[0.5,1],[0.25,1],[0,1],[0,0.75],[0,0.5],[0,0.25]];outlineConnect=0;gradientColor=none;html=1;whiteSpace=wrap;fontSize=12;fontStyle=0;shape=mxgraph.aws4.group;grIcon=mxgraph.aws4.group_security_group;grStroke=0;strokeColor=#248814;fillColor=#E9F3E6;verticalAlign=top;align=left;spacingLeft=30;fontColor=#248814;dashed=0;" parent="1" vertex="1">
                    <mxGeometry x="85" y="100" width="240" height="120" as="geometry"/>
                </mxCell>
                <mxCell id="LLyY363C2WJFp_gUzBj3-4" value="" style="points=[[0,0],[0.25,0],[0.5,0],[0.75,0],[1,0],[1,0.25],[1,0.5],[1,0.75],[1,1],[0.75,1],[0.5,1],[0.25,1],[0,1],[0,0.75],[0,0.5],[0,0.25]];outlineConnect=0;gradientColor=none;html=1;whiteSpace=wrap;fontSize=12;fontStyle=0;shape=mxgraph.aws4.group;grIcon=mxgraph.aws4.group_security_group;grStroke=0;strokeColor=#248814;fillColor=#E9F3E6;verticalAlign=top;align=left;spacingLeft=30;fontColor=#248814;dashed=0;" parent="1" vertex="1">
                    <mxGeometry x="336" y="100" width="240" height="120" as="geometry"/>
                </mxCell>
                <mxCell id="LLyY363C2WJFp_gUzBj3-7" value="" style="outlineConnect=0;fontColor=#232F3E;gradientColor=#F78E04;gradientDirection=north;fillColor=#D05C17;strokeColor=#ffffff;dashed=0;verticalLabelPosition=bottom;verticalAlign=top;align=center;html=1;fontSize=12;fontStyle=0;aspect=fixed;shape=mxgraph.aws4.resourceIcon;resIcon=mxgraph.aws4.elastic_load_balancing;" parent="1" vertex="1">
                    <mxGeometry x="307" y="140" width="48" height="48" as="geometry"/>
                </mxCell>
                <mxCell id="LLyY363C2WJFp_gUzBj3-8" value="GitLab" style="outlineConnect=0;fontColor=#232F3E;gradientColor=#F78E04;gradientDirection=north;fillColor=#D05C17;strokeColor=#ffffff;dashed=0;verticalLabelPosition=bottom;verticalAlign=top;align=center;html=1;fontSize=12;fontStyle=0;aspect=fixed;shape=mxgraph.aws4.resourceIcon;resIcon=mxgraph.aws4.ec2;" parent="1" vertex="1">
                    <mxGeometry x="135.5" y="140" width="48" height="48" as="geometry"/>
                </mxCell>
                <mxCell id="LLyY363C2WJFp_gUzBj3-9" value="Runner" style="outlineConnect=0;fontColor=#232F3E;gradientColor=#F78E04;gradientDirection=north;fillColor=#D05C17;strokeColor=#ffffff;dashed=0;verticalLabelPosition=bottom;verticalAlign=top;align=center;html=1;fontSize=12;fontStyle=0;aspect=fixed;shape=mxgraph.aws4.resourceIcon;resIcon=mxgraph.aws4.ec2;" parent="1" vertex="1">
                    <mxGeometry x="204.50000000000006" y="140" width="48" height="48" as="geometry"/>
                </mxCell>
                <mxCell id="LLyY363C2WJFp_gUzBj3-10" value="" style="outlineConnect=0;fontColor=#232F3E;gradientColor=none;fillColor=#5A30B5;strokeColor=none;dashed=0;verticalLabelPosition=bottom;verticalAlign=top;align=center;html=1;fontSize=12;fontStyle=0;aspect=fixed;pointerEvents=1;shape=mxgraph.aws4.internet_gateway;" parent="1" vertex="1">
                    <mxGeometry x="306" y="20" width="48" height="48" as="geometry"/>
                </mxCell>
                <mxCell id="LLyY363C2WJFp_gUzBj3-14" style="edgeStyle=orthogonalEdgeStyle;rounded=0;orthogonalLoop=1;jettySize=auto;html=1;dashed=1;" parent="1" source="LLyY363C2WJFp_gUzBj3-15" target="LLyY363C2WJFp_gUzBj3-17" edge="1">
                    <mxGeometry relative="1" as="geometry"/>
                </mxCell>
                <mxCell id="LLyY363C2WJFp_gUzBj3-15" value="" style="outlineConnect=0;fontColor=#232F3E;gradientColor=#4D72F3;gradientDirection=north;fillColor=#3334B9;strokeColor=#ffffff;dashed=0;verticalLabelPosition=bottom;verticalAlign=top;align=center;html=1;fontSize=12;fontStyle=0;aspect=fixed;shape=mxgraph.aws4.resourceIcon;resIcon=mxgraph.aws4.codepipeline;" parent="1" vertex="1">
                    <mxGeometry x="664" y="238" width="48" height="48" as="geometry"/>
                </mxCell>
                <mxCell id="LLyY363C2WJFp_gUzBj3-17" value="" style="outlineConnect=0;fontColor=#232F3E;gradientColor=#4D72F3;gradientDirection=north;fillColor=#3334B9;strokeColor=#ffffff;dashed=0;verticalLabelPosition=bottom;verticalAlign=top;align=center;html=1;fontSize=12;fontStyle=0;aspect=fixed;shape=mxgraph.aws4.resourceIcon;resIcon=mxgraph.aws4.codedeploy;" parent="1" vertex="1">
                    <mxGeometry x="664" y="340" width="48" height="48" as="geometry"/>
                </mxCell>
                <mxCell id="LLyY363C2WJFp_gUzBj3-18" style="edgeStyle=orthogonalEdgeStyle;rounded=0;orthogonalLoop=1;jettySize=auto;html=1;dashed=1;" parent="1" source="LLyY363C2WJFp_gUzBj3-19" target="LLyY363C2WJFp_gUzBj3-15" edge="1">
                    <mxGeometry relative="1" as="geometry"/>
                </mxCell>
                <mxCell id="LLyY363C2WJFp_gUzBj3-19" value="" style="outlineConnect=0;fontColor=#232F3E;gradientColor=#60A337;gradientDirection=north;fillColor=#277116;strokeColor=#ffffff;dashed=0;verticalLabelPosition=bottom;verticalAlign=top;align=center;html=1;fontSize=12;fontStyle=0;aspect=fixed;shape=mxgraph.aws4.resourceIcon;resIcon=mxgraph.aws4.s3;" parent="1" vertex="1">
                    <mxGeometry x="616" y="136" width="48" height="48" as="geometry"/>
                </mxCell>
                <mxCell id="LLyY363C2WJFp_gUzBj3-20" style="edgeStyle=orthogonalEdgeStyle;rounded=0;orthogonalLoop=1;jettySize=auto;html=1;dashed=1;" parent="1" source="LLyY363C2WJFp_gUzBj3-21" target="LLyY363C2WJFp_gUzBj3-15" edge="1">
                    <mxGeometry relative="1" as="geometry"/>
                </mxCell>
                <mxCell id="LLyY363C2WJFp_gUzBj3-21" value="" style="outlineConnect=0;fontColor=#232F3E;gradientColor=#F78E04;gradientDirection=north;fillColor=#D05C17;strokeColor=#ffffff;dashed=0;verticalLabelPosition=bottom;verticalAlign=top;align=center;html=1;fontSize=12;fontStyle=0;aspect=fixed;shape=mxgraph.aws4.resourceIcon;resIcon=mxgraph.aws4.ecr;" parent="1" vertex="1">
                    <mxGeometry x="712" y="136" width="48" height="48" as="geometry"/>
                </mxCell>
                <mxCell id="LLyY363C2WJFp_gUzBj3-30" value="" style="endArrow=classic;html=1;dashed=1;" parent="1" edge="1">
                    <mxGeometry width="50" height="50" relative="1" as="geometry">
                        <mxPoint x="616.9400000000002" y="488.1700000000003" as="sourcePoint"/>
                        <mxPoint x="663.9400000000002" y="488.1700000000003" as="targetPoint"/>
                    </mxGeometry>
                </mxCell>
                <mxCell id="LLyY363C2WJFp_gUzBj3-31" value="CICD" style="edgeLabel;html=1;align=left;verticalAlign=middle;resizable=0;points=[];labelPosition=right;verticalLabelPosition=middle;" parent="LLyY363C2WJFp_gUzBj3-30" vertex="1" connectable="0">
                    <mxGeometry x="0.4218" y="2" relative="1" as="geometry">
                        <mxPoint x="17.06" as="offset"/>
                    </mxGeometry>
                </mxCell>
                <mxCell id="LLyY363C2WJFp_gUzBj3-32" value="" style="endArrow=classic;html=1;" parent="1" edge="1">
                    <mxGeometry width="50" height="50" relative="1" as="geometry">
                        <mxPoint x="616.9400000000002" y="451.9999999999998" as="sourcePoint"/>
                        <mxPoint x="663.9400000000002" y="451.9999999999998" as="targetPoint"/>
                    </mxGeometry>
                </mxCell>
                <mxCell id="LLyY363C2WJFp_gUzBj3-33" value="サービスアクセス" style="edgeLabel;html=1;align=left;verticalAlign=middle;resizable=0;points=[];labelPosition=right;verticalLabelPosition=middle;" parent="LLyY363C2WJFp_gUzBj3-32" vertex="1" connectable="0">
                    <mxGeometry x="0.4218" y="2" relative="1" as="geometry">
                        <mxPoint x="17.06" as="offset"/>
                    </mxGeometry>
                </mxCell>
                <mxCell id="LLyY363C2WJFp_gUzBj3-34" value="Private subnet" style="points=[[0,0],[0.25,0],[0.5,0],[0.75,0],[1,0],[1,0.25],[1,0.5],[1,0.75],[1,1],[0.75,1],[0.5,1],[0.25,1],[0,1],[0,0.75],[0,0.5],[0,0.25]];outlineConnect=0;gradientColor=none;html=1;whiteSpace=wrap;fontSize=12;fontStyle=0;shape=mxgraph.aws4.group;grIcon=mxgraph.aws4.group_security_group;grStroke=0;strokeColor=#147EBA;fillColor=#E6F2F8;verticalAlign=top;align=left;spacingLeft=30;fontColor=#147EBA;dashed=0;" parent="1" vertex="1">
                    <mxGeometry x="85" y="250" width="240" height="270" as="geometry"/>
                </mxCell>
                <mxCell id="LLyY363C2WJFp_gUzBj3-41" value="" style="points=[[0,0],[0.25,0],[0.5,0],[0.75,0],[1,0],[1,0.25],[1,0.5],[1,0.75],[1,1],[0.75,1],[0.5,1],[0.25,1],[0,1],[0,0.75],[0,0.5],[0,0.25]];outlineConnect=0;gradientColor=none;html=1;whiteSpace=wrap;fontSize=12;fontStyle=0;shape=mxgraph.aws4.group;grIcon=mxgraph.aws4.group_security_group;grStroke=0;strokeColor=#147EBA;fillColor=#E6F2F8;verticalAlign=top;align=left;spacingLeft=30;fontColor=#147EBA;dashed=0;" parent="1" vertex="1">
                    <mxGeometry x="336" y="250" width="240" height="270" as="geometry"/>
                </mxCell>
                <mxCell id="LLyY363C2WJFp_gUzBj3-22" value="" style="rounded=0;whiteSpace=wrap;html=1;strokeColor=#D86613;fillColor=none;" parent="1" vertex="1">
                    <mxGeometry x="101" y="290" width="466" height="210" as="geometry"/>
                </mxCell>
                <mxCell id="LLyY363C2WJFp_gUzBj3-23" value="" style="outlineConnect=0;fontColor=#232F3E;gradientColor=#F78E04;gradientDirection=north;fillColor=#D05C17;strokeColor=#ffffff;dashed=0;verticalLabelPosition=bottom;verticalAlign=top;align=center;html=1;fontSize=12;fontStyle=0;aspect=fixed;shape=mxgraph.aws4.resourceIcon;resIcon=mxgraph.aws4.ecs;" parent="1" vertex="1">
                    <mxGeometry x="101" y="290" width="30" height="30" as="geometry"/>
                </mxCell>
                <mxCell id="LLyY363C2WJFp_gUzBj3-51" style="edgeStyle=orthogonalEdgeStyle;rounded=0;orthogonalLoop=1;jettySize=auto;html=1;dashed=1;" parent="1" source="LLyY363C2WJFp_gUzBj3-13" target="LLyY363C2WJFp_gUzBj3-28" edge="1">
                    <mxGeometry relative="1" as="geometry">
                        <Array as="points">
                            <mxPoint x="525" y="450"/>
                            <mxPoint x="246" y="450"/>
                        </Array>
                    </mxGeometry>
                </mxCell>
                <mxCell id="LLyY363C2WJFp_gUzBj3-13" value="" style="outlineConnect=0;fontColor=#232F3E;gradientColor=none;fillColor=#D05C17;strokeColor=none;dashed=0;verticalLabelPosition=bottom;verticalAlign=top;align=center;html=1;fontSize=12;fontStyle=0;aspect=fixed;pointerEvents=1;shape=mxgraph.aws4.ecs_service;" parent="1" vertex="1">
                    <mxGeometry x="501" y="334.76" width="48" height="58.48" as="geometry"/>
                </mxCell>
                <mxCell id="LLyY363C2WJFp_gUzBj3-25" value="" style="outlineConnect=0;fontColor=#232F3E;gradientColor=#F78E04;gradientDirection=north;fillColor=#D05C17;strokeColor=#ffffff;dashed=0;verticalLabelPosition=bottom;verticalAlign=top;align=center;html=1;fontSize=12;fontStyle=0;aspect=fixed;shape=mxgraph.aws4.resourceIcon;resIcon=mxgraph.aws4.fargate;" parent="1" vertex="1">
                    <mxGeometry x="170" y="320" width="29.75206611570248" height="29.75206611570248" as="geometry"/>
                </mxCell>
                <mxCell id="LLyY363C2WJFp_gUzBj3-26" value="" style="rounded=0;whiteSpace=wrap;html=1;strokeColor=#D86613;fillColor=none;" parent="1" vertex="1">
                    <mxGeometry x="170" y="320" width="321" height="150" as="geometry"/>
                </mxCell>
                <mxCell id="LLyY363C2WJFp_gUzBj3-27" style="edgeStyle=orthogonalEdgeStyle;rounded=0;orthogonalLoop=1;jettySize=auto;html=1;exitX=0.5;exitY=1;exitDx=0;exitDy=0;" parent="1" source="LLyY363C2WJFp_gUzBj3-26" target="LLyY363C2WJFp_gUzBj3-26" edge="1">
                    <mxGeometry relative="1" as="geometry"/>
                </mxCell>
                <mxCell id="LLyY363C2WJFp_gUzBj3-28" value="" style="outlineConnect=0;fontColor=#232F3E;gradientColor=none;fillColor=#D05C17;strokeColor=none;dashed=0;verticalLabelPosition=bottom;verticalAlign=top;align=center;html=1;fontSize=12;fontStyle=0;aspect=fixed;pointerEvents=1;shape=mxgraph.aws4.container_1;" parent="1" vertex="1">
                    <mxGeometry x="214.8" y="375" width="62.4" height="40" as="geometry"/>
                </mxCell>
                <mxCell id="LLyY363C2WJFp_gUzBj3-29" value="" style="outlineConnect=0;fontColor=#232F3E;gradientColor=none;fillColor=#D05C17;strokeColor=none;dashed=0;verticalLabelPosition=bottom;verticalAlign=top;align=center;html=1;fontSize=12;fontStyle=0;aspect=fixed;pointerEvents=1;shape=mxgraph.aws4.container_1;" parent="1" vertex="1">
                    <mxGeometry x="384" y="375" width="62.4" height="40" as="geometry"/>
                </mxCell>
                <mxCell id="LLyY363C2WJFp_gUzBj3-47" style="edgeStyle=orthogonalEdgeStyle;rounded=0;orthogonalLoop=1;jettySize=auto;html=1;dashed=1;" parent="1" source="LLyY363C2WJFp_gUzBj3-17" target="LLyY363C2WJFp_gUzBj3-13" edge="1">
                    <mxGeometry relative="1" as="geometry"/>
                </mxCell>
                <mxCell id="LLyY363C2WJFp_gUzBj3-50" style="edgeStyle=orthogonalEdgeStyle;rounded=0;orthogonalLoop=1;jettySize=auto;html=1;dashed=1;" parent="1" source="LLyY363C2WJFp_gUzBj3-13" target="LLyY363C2WJFp_gUzBj3-29" edge="1">
                    <mxGeometry relative="1" as="geometry">
                        <Array as="points">
                            <mxPoint x="525" y="450"/>
                            <mxPoint x="415" y="450"/>
                        </Array>
                    </mxGeometry>
                </mxCell>
                <mxCell id="LLyY363C2WJFp_gUzBj3-48" style="edgeStyle=orthogonalEdgeStyle;rounded=0;orthogonalLoop=1;jettySize=auto;html=1;" parent="1" source="LLyY363C2WJFp_gUzBj3-7" target="LLyY363C2WJFp_gUzBj3-28" edge="1">
                    <mxGeometry relative="1" as="geometry">
                        <Array as="points">
                            <mxPoint x="331" y="230"/>
                            <mxPoint x="246" y="230"/>
                        </Array>
                    </mxGeometry>
                </mxCell>
                <mxCell id="LLyY363C2WJFp_gUzBj3-49" style="edgeStyle=orthogonalEdgeStyle;rounded=0;orthogonalLoop=1;jettySize=auto;html=1;" parent="1" source="LLyY363C2WJFp_gUzBj3-7" target="LLyY363C2WJFp_gUzBj3-29" edge="1">
                    <mxGeometry relative="1" as="geometry">
                        <Array as="points">
                            <mxPoint x="331" y="230"/>
                            <mxPoint x="415" y="230"/>
                        </Array>
                    </mxGeometry>
                </mxCell>
                <mxCell id="LLyY363C2WJFp_gUzBj3-52" value="" style="outlineConnect=0;fontColor=#232F3E;gradientColor=none;fillColor=#5A30B5;strokeColor=none;dashed=0;verticalLabelPosition=bottom;verticalAlign=top;align=center;html=1;fontSize=12;fontStyle=0;aspect=fixed;pointerEvents=1;shape=mxgraph.aws4.nat_gateway;" parent="1" vertex="1">
                    <mxGeometry x="431" y="140" width="48" height="48" as="geometry"/>
                </mxCell>
            </root>
        </mxGraphModel>
    </diagram>
</mxfile>